<svg width="163" height="104" viewBox="0 0 163 104" fill="none" xmlns="http://www.w3.org/2000/svg">
<g clip-path="url(#clip0_233_4744)">
<path d="M40.6877 59.5007C40.3793 58.2732 40.5542 57.0236 40.5542 55.7836C40.5342 51.4528 40.4474 47.1192 40.5542 42.7897C40.9375 26.5391 47.7118 13.9488 61.3153 5.77094C72.6219 -1.02597 84.5922 -1.76274 96.8055 3.25926C106.128 7.09384 113.049 13.765 117.758 22.8275C120.8 28.6803 122.431 35.0169 122.477 41.717C122.514 47.0929 122.499 52.4688 122.495 57.846C122.495 58.4833 122.58 59.1455 122.251 59.744C120.318 57.688 118.386 55.6325 116.454 53.5774C112.974 49.8977 109.491 46.2221 106.004 42.5506C105.972 34.0354 102.558 27.1583 96.0043 22.2303C87.8665 16.1108 78.9609 15.3726 70.078 20.2716C61.6211 24.9356 57.237 32.5246 57.0234 42.5492C53.5354 46.2414 50.0794 49.9613 46.55 53.6078C44.6231 55.6081 42.9165 57.835 40.6877 59.5007Z" fill="#F20000"/>
<path d="M40.6865 59.501C42.9153 57.8353 44.6219 55.6083 46.5448 53.615C50.0689 49.9615 53.5302 46.2417 57.0182 42.5564C60.7158 42.5564 64.4161 42.6449 68.1098 42.5357C73.1655 42.385 76.9513 44.699 79.9412 48.7091C80.4753 49.4349 80.9694 50.2048 81.5436 51.0494C81.78 50.6651 81.9296 50.4205 82.0778 50.1786C85.2052 45.2353 89.3529 42.2703 95.33 42.5288C98.8781 42.6822 102.437 42.5578 105.99 42.5592C109.474 46.2352 112.957 49.9108 116.441 53.586C118.378 55.6365 120.31 57.692 122.238 59.7526C121.74 60.029 121.199 59.8908 120.681 59.8908C94.4834 59.8991 68.286 59.8922 42.0887 59.8701C41.6493 59.8673 40.971 60.3428 40.6865 59.501Z" fill="white"/>
</g>
<path d="M8.756 97H2.444V79.456H8.588C13.772 79.456 17.348 83.032 17.348 88.264C17.348 93.424 13.844 97 8.756 97ZM8.3 82.288H5.516V94.168H8.468C11.972 94.168 14.108 91.912 14.108 88.264C14.108 84.544 11.924 82.288 8.3 82.288ZM23.3056 97.312C20.7856 97.312 19.2496 95.848 19.2496 93.616C19.2496 91.432 20.8336 90.064 23.6416 89.848L27.1936 89.584V89.32C27.1936 87.712 26.2336 87.064 24.7456 87.064C23.0176 87.064 22.0576 87.784 22.0576 89.032H19.5616C19.5616 86.464 21.6736 84.784 24.8896 84.784C28.0816 84.784 30.0496 86.512 30.0496 89.8V97H27.4816L27.2656 95.248C26.7616 96.472 25.1536 97.312 23.3056 97.312ZM24.2656 95.104C26.0656 95.104 27.2176 94.024 27.2176 92.2V91.576L24.7456 91.768C22.9216 91.936 22.2256 92.536 22.2256 93.496C22.2256 94.576 22.9456 95.104 24.2656 95.104ZM34.3901 82.768C33.3821 82.768 32.5901 81.976 32.5901 80.992C32.5901 80.008 33.3821 79.24 34.3901 79.24C35.3501 79.24 36.1421 80.008 36.1421 80.992C36.1421 81.976 35.3501 82.768 34.3901 82.768ZM32.9261 97V85.144H35.8541V97H32.9261ZM41.8312 97H38.9272V79.144H41.8312V97ZM43.8706 102.496V100.048H45.6226C46.7746 100.048 47.4946 99.784 47.9986 98.392L48.3346 97.504L43.5586 85.144H46.6546L49.7026 93.784L52.9186 85.144H55.9426L50.1346 99.64C49.2466 101.848 47.9986 102.76 46.0546 102.76C45.2386 102.76 44.5186 102.664 43.8706 102.496ZM70.8185 97H64.5065V79.456H70.6505C75.8345 79.456 79.4105 83.032 79.4105 88.264C79.4105 93.424 75.9065 97 70.8185 97ZM70.3625 82.288H67.5785V94.168H70.5305C74.0345 94.168 76.1705 91.912 76.1705 88.264C76.1705 84.544 73.9865 82.288 70.3625 82.288ZM87.1441 97.312C83.6161 97.312 81.1441 94.744 81.1441 91.072C81.1441 87.352 83.5681 84.784 87.0481 84.784C90.6001 84.784 92.8561 87.16 92.8561 90.856V91.744L83.9281 91.768C84.1441 93.856 85.2481 94.912 87.1921 94.912C88.8001 94.912 89.8561 94.288 90.1921 93.16H92.9041C92.4001 95.752 90.2401 97.312 87.1441 97.312ZM87.0721 87.184C85.3441 87.184 84.2881 88.12 84.0001 89.896H89.9521C89.9521 88.264 88.8241 87.184 87.0721 87.184ZM98.0439 97L93.3399 85.144H96.4599L98.5239 90.592C99.0279 92.008 99.4359 93.232 99.5799 93.88C99.7479 93.136 100.18 91.888 100.684 90.592L102.844 85.144H105.868L100.924 97H98.0439ZM106.269 91.048C106.269 87.352 108.933 84.808 112.605 84.808C116.277 84.808 118.941 87.352 118.941 91.048C118.941 94.744 116.277 97.288 112.605 97.288C108.933 97.288 106.269 94.744 106.269 91.048ZM109.197 91.048C109.197 93.208 110.589 94.672 112.605 94.672C114.621 94.672 116.013 93.208 116.013 91.048C116.013 88.888 114.621 87.424 112.605 87.424C110.589 87.424 109.197 88.888 109.197 91.048ZM125.177 97H122.249V87.592H119.969V85.144H122.249V81.448H125.177V85.144H127.481V87.592H125.177V97ZM130.765 82.768C129.757 82.768 128.965 81.976 128.965 80.992C128.965 80.008 129.757 79.24 130.765 79.24C131.725 79.24 132.517 80.008 132.517 80.992C132.517 81.976 131.725 82.768 130.765 82.768ZM129.301 97V85.144H132.229V97H129.301ZM134.558 91.048C134.558 87.352 137.222 84.808 140.894 84.808C144.566 84.808 147.23 87.352 147.23 91.048C147.23 94.744 144.566 97.288 140.894 97.288C137.222 97.288 134.558 94.744 134.558 91.048ZM137.486 91.048C137.486 93.208 138.878 94.672 140.894 94.672C142.91 94.672 144.302 93.208 144.302 91.048C144.302 88.888 142.91 87.424 140.894 87.424C138.878 87.424 137.486 88.888 137.486 91.048ZM152.479 97H149.551V85.144H152.263L152.503 86.68C153.247 85.48 154.687 84.784 156.295 84.784C159.271 84.784 160.807 86.632 160.807 89.704V97H157.879V90.4C157.879 88.408 156.895 87.448 155.383 87.448C153.583 87.448 152.479 88.696 152.479 90.616V97Z" fill="#F20000"/>
<defs>
<clipPath id="clip0_233_4744">
<rect width="82" height="60" fill="white" transform="translate(40.5)"/>
</clipPath>
</defs>
</svg>
