<svg width="21" height="23" viewBox="0 0 21 23" fill="none" xmlns="http://www.w3.org/2000/svg">
<g clip-path="url(#clip0_233_4816)">
<path d="M0 13.0654C0 12.6456 0 12.2263 0 11.8065C0.0146103 11.7493 0.0327472 11.6921 0.0428232 11.6344C0.113859 11.2286 0.149126 10.8147 0.259458 10.4174C0.7552 8.63834 1.76734 7.17947 3.60168 6.26109C4.78915 5.66656 6.05974 5.41253 7.39834 5.70845C8.15707 5.87645 8.89463 6.13363 9.62565 6.38676C10.2831 6.61421 10.9139 6.65295 11.5708 6.39306C12.0056 6.22101 12.4636 6.09625 12.9099 5.94716C14.8455 5.30083 16.7197 5.4328 18.5248 6.31875C19.2614 6.68042 19.8503 7.19028 20.3098 7.84292C18.3747 8.94101 17.4028 10.471 17.5671 12.5407C17.7318 14.6143 18.9626 16.0052 20.999 16.8776C20.9768 16.951 20.9667 16.9947 20.9506 17.0366C20.2655 18.8162 19.1707 20.3836 17.8129 21.8064C16.8769 22.7879 15.6985 23.2045 14.2647 22.8527C13.7664 22.7302 13.2797 22.564 12.7971 22.396C11.7562 22.0343 10.7018 21.9528 9.62918 22.2555C8.77876 22.4955 7.93338 22.7509 7.08598 22.9995C6.83458 22.9995 6.58319 22.9995 6.33229 22.9995C5.3655 22.7712 4.62541 22.2447 3.9886 21.5794C1.98649 19.4886 0.696255 17.0974 0.201521 14.3729C0.122928 13.9387 0.0665019 13.5014 0 13.0654Z" fill="white"/>
<path d="M10.489 5.27786C10.1711 2.6065 12.8085 0.163948 15.6227 0C15.7089 0.734613 15.6101 1.45121 15.3048 2.13267C14.803 3.25419 13.9879 4.1604 12.8377 4.80448C12.1218 5.20535 11.3278 5.34317 10.489 5.27786Z" fill="white"/>
</g>
<defs>
<clipPath id="clip0_233_4816">
<rect width="21" height="23" fill="white"/>
</clipPath>
</defs>
</svg>
