<svg width="24" height="24" viewBox="0 0 24 24" fill="none" xmlns="http://www.w3.org/2000/svg">
<g clip-path="url(#clip0_233_4820)">
<path d="M0 13.0693C0 12.3933 0 11.7173 0 11.0413C0.0789103 11.0072 0.0474401 10.9335 0.0535463 10.8772C0.312353 8.44594 1.1954 6.27181 2.74965 4.39173C6.52466 -0.174927 12.8793 -1.32274 17.9962 1.62195C22.543 4.23809 24.8981 9.66702 23.6825 14.7929C22.8746 18.2004 20.9408 20.7877 17.9436 22.5619C16.6891 23.3046 15.3311 23.7726 13.8854 24C13.8798 23.9579 13.8722 23.9272 13.8722 23.8965C13.8718 21.1773 13.8732 18.4576 13.8675 15.7384C13.8671 15.5763 13.9338 15.5663 14.0611 15.5668C14.8262 15.5711 15.5918 15.5687 16.357 15.5687C16.6909 15.5687 16.6815 15.5673 16.7295 15.2368C16.8704 14.2616 17.0089 13.2858 17.1738 12.3148C17.2123 12.0879 17.148 12.0742 16.9638 12.0752C15.9958 12.0818 15.0272 12.0789 14.0587 12.0775C13.9737 12.0775 13.8647 12.1158 13.8704 11.9537C13.8981 11.1065 13.8182 10.257 13.9159 9.4108C14.007 8.62321 14.5871 8.06538 15.3744 7.96942C15.9667 7.89709 16.5594 7.942 17.1517 7.93065C17.2804 7.92829 17.3452 7.91741 17.3438 7.75716C17.3354 6.87692 17.3372 5.99668 17.3429 5.11644C17.3438 4.98738 17.3011 4.93207 17.1785 4.91694C16.0564 4.77796 14.9328 4.62148 13.8013 4.77417C12.7844 4.91127 11.8896 5.31262 11.1982 6.10682C10.4603 6.95444 10.1653 7.97131 10.1301 9.06806C10.1 10.0022 10.1193 10.9387 10.1273 11.8738C10.1287 12.0369 10.0892 12.0846 9.9225 12.0832C9.05589 12.0742 8.18882 12.0879 7.32222 12.0728C7.10568 12.069 7.07093 12.1366 7.0728 12.3342C7.08267 13.3402 7.08173 14.3462 7.07327 15.3522C7.07186 15.5261 7.11179 15.5758 7.28981 15.5739C8.15641 15.5635 9.02349 15.5767 9.89009 15.564C10.093 15.5611 10.1278 15.624 10.1278 15.8126C10.1217 18.4614 10.1235 21.1101 10.1235 23.7589C10.1235 23.8364 10.1235 23.9139 10.1235 23.9938C8.969 23.8539 7.56364 23.4076 6.29685 22.6924C2.85345 20.7485 0.799436 17.8095 0.134805 13.8895C0.0883044 13.6163 0.116017 13.3303 0 13.0693Z" fill="#0079F9"/>
</g>
<defs>
<clipPath id="clip0_233_4820">
<rect width="24" height="24" fill="white"/>
</clipPath>
</defs>
</svg>
