<svg width="24" height="24" viewBox="0 0 24 24" fill="none" xmlns="http://www.w3.org/2000/svg">
<g clip-path="url(#clip0_233_4807)">
<path d="M15.7037 17.1243C16.4629 16.5474 17.1038 15.8666 17.5497 15.0158C17.5779 14.9622 17.6028 14.9072 17.6521 14.8058C15.7446 14.8058 13.8723 14.8058 12 14.8058C12 12.9359 12 11.0665 12 9.19665C12.078 9.19383 12.156 9.18913 12.234 9.18913C15.8258 9.18866 19.4182 9.18866 23.0105 9.18866C23.4987 9.18866 23.7392 9.39679 23.8139 9.87976C23.875 10.2744 23.938 10.669 24.0005 11.0637C24.0005 11.704 24.0005 12.3449 24.0005 12.9852C23.9558 13.0036 23.9568 13.0435 23.954 13.082C23.8722 14.1015 23.6448 15.0905 23.2887 16.047C22.5398 18.0573 21.3525 19.7628 19.7015 21.1393C19.6437 21.0764 19.5887 21.0106 19.5281 20.95C18.253 19.6744 16.9783 18.3994 15.7037 17.1243Z" fill="#2B76E5"/>
<path d="M5.93546 13.8619C6.28267 14.88 6.81452 15.7839 7.59585 16.5309C8.78876 17.6711 10.2095 18.2725 11.8605 18.327C11.907 18.3284 11.9536 18.3331 12.0001 18.3364C12.0001 20.2241 12.0001 22.1123 12.0001 24C11.6721 24 11.3437 24 11.0158 24C10.7804 23.8872 10.5201 23.9112 10.2725 23.8717C7.03534 23.3545 4.4428 21.7651 2.44836 19.1797C2.17727 18.8283 1.9198 18.4651 1.71777 18.0667C1.8014 17.985 1.8855 17.9042 1.96819 17.8219C3.29077 16.5018 4.61335 15.1821 5.93546 13.8619Z" fill="#00C55F"/>
<path d="M12 24C12 22.1123 12 20.2241 12 18.3364C13.3536 18.2955 14.5968 17.9178 15.7037 17.1243C16.9783 18.3993 18.253 19.6749 19.5267 20.9504C19.5869 21.011 19.6423 21.0763 19.7001 21.1398C19.4934 21.3418 19.2594 21.51 19.0268 21.6786C17.4543 22.8165 15.7187 23.5626 13.7952 23.8661C13.5096 23.9112 13.214 23.8981 12.9378 24.0005C12.6249 24 12.3124 24 12 24Z" fill="#00A967"/>
<path d="M1.72266 5.92107C2.49976 4.57176 3.52259 3.43669 4.75261 2.48908C6.5422 1.11017 8.56436 0.300681 10.8106 0.0610757C11.2053 0.0187924 11.6028 -0.018323 12.0017 0.00939608C12.0017 1.89476 12.0017 3.78013 12.0017 5.66549C10.4559 5.69603 9.08071 6.18887 7.89955 7.19427C7.01814 7.94409 6.3895 8.87057 6.00377 9.96148C5.98028 10.0272 5.95397 10.0921 5.9286 10.1574C5.86094 10.0822 5.79705 10.0033 5.72563 9.93188C4.39178 8.59431 3.05698 7.25769 1.72266 5.92107Z" fill="#FE5501"/>
<path d="M1.72261 5.92133C3.05693 7.25795 4.39126 8.59457 5.72511 9.93213C5.79653 10.0035 5.86042 10.0825 5.92808 10.1576C5.79934 10.6946 5.69175 11.234 5.67343 11.7888C5.64994 12.4945 5.75894 13.1823 5.9356 13.8621C4.61349 15.1823 3.29091 16.5025 1.96833 17.8222C1.88564 17.9049 1.80154 17.9852 1.71791 18.067C1.06437 17.0198 0.608631 15.8894 0.326262 14.6914C-0.401039 11.6042 0.103561 8.70545 1.68079 5.97535C1.69207 5.95562 1.70851 5.93918 1.72261 5.92133Z" fill="#FED701"/>
<path d="M12.001 5.66547C12.001 3.7801 12.001 1.89474 12.001 0.00936958C13.8183 -0.014591 15.5304 0.417168 17.1612 1.20082C18.0435 1.62459 18.8544 2.15924 19.6118 2.77752C19.9999 3.09417 20.0361 3.56164 19.6813 3.91776C18.706 4.89779 17.7259 5.87265 16.7435 6.84564C16.4428 7.1435 16.1115 7.17263 15.7728 6.92551C14.8937 6.28327 13.9184 5.88205 12.8415 5.73406C12.5629 5.696 12.281 5.68755 12.001 5.66547Z" fill="#FE0E01"/>
<path d="M11.9997 9.19617C11.9997 11.066 11.9997 12.9354 11.9997 14.8053C11.5857 14.787 11.3006 14.5192 11.2992 14.1165C11.2935 12.7057 11.2935 11.2948 11.2992 9.88444C11.3006 9.48228 11.5872 9.21355 11.9997 9.19617Z" fill="#1688FB"/>
</g>
<defs>
<clipPath id="clip0_233_4807">
<rect width="24" height="24" fill="white"/>
</clipPath>
</defs>
</svg>
